<svg width="80" height="80" viewBox="0 0 80 80" fill="none" xmlns="http://www.w3.org/2000/svg">
<path d="M68.7668 65.7276C68.5306 65.5063 68.1556 65.5176 67.9306 65.7538C65.1558 68.6898 61.9311 71.1646 58.3539 73.1107C42.4814 81.7388 22.4692 78.0378 10.7663 64.3064C10.5564 64.0589 10.1814 64.0252 9.93017 64.2352L9.65268 64.4677C9.56269 64.5427 9.49894 64.6439 9.46519 64.7564C9.40895 64.9514 9.45019 65.1576 9.58143 65.3113C15.4385 72.1846 23.5791 76.9092 32.4996 78.6191C41.5439 80.3514 50.9894 78.8778 59.0963 74.4719C62.8198 72.447 66.172 69.871 69.063 66.8187C69.1268 66.7512 69.1755 66.6687 69.2018 66.5788C69.2655 66.3613 69.2018 66.125 69.0368 65.9713L68.7668 65.7276Z" fill="#0086C9"/>
<path d="M75.1262 20.2435C69.7229 10.3067 60.3111 3.0923 49.302 0.452505C48.9945 0.377511 48.6795 0.561249 48.5895 0.864975C48.5858 0.876224 48.582 0.887464 48.582 0.902463L48.4995 1.25494C48.4283 1.56991 48.6233 1.88863 48.942 1.96738C59.5237 4.50218 68.5717 11.4354 73.7613 20.9859C78.6622 30.0039 79.7608 40.3906 76.8473 50.2373C76.6561 50.8823 76.4461 51.5272 76.2248 52.1609L76.2136 52.1909C76.1236 52.4909 76.2848 52.8096 76.5811 52.9184L76.9223 53.0421C77.0723 53.0984 77.2373 53.0909 77.3835 53.0196C77.5297 52.9521 77.6385 52.8284 77.691 52.6784C77.9235 52.0185 78.1409 51.3473 78.3397 50.6798C81.3694 40.4356 80.2258 29.6252 75.1262 20.2435Z" fill="#0086C9"/>
<path d="M3.13945 28.4442C6.04922 18.6012 12.6187 10.4794 21.6405 5.57474C25.2215 3.62865 29.0499 2.27125 33.0208 1.5363C33.2421 1.49506 33.4183 1.33757 33.4821 1.12009C33.5083 1.03385 33.5121 0.940105 33.4971 0.850112L33.4333 0.493885C33.4071 0.336397 33.3171 0.197659 33.1858 0.107666C33.0546 0.0176728 32.8934 -0.0198279 32.7396 0.0101697C28.6074 0.77511 24.6215 2.185 20.8981 4.20985C11.5125 9.30945 4.67683 17.7613 1.65081 28.0017C-0.554014 35.4636 -0.550265 43.3268 1.66206 50.7399C1.70706 50.8937 1.81206 51.0174 1.9508 51.0962C2.09328 51.1712 2.25451 51.1899 2.40825 51.1412L2.75323 51.0362C2.94446 50.9762 3.0907 50.8299 3.14694 50.6387C3.18069 50.5262 3.18069 50.41 3.14694 50.2975C1.02461 43.173 1.02086 35.6136 3.13945 28.4442Z" fill="#0086C9"/>
<path d="M11.0101 59.5668L11.6738 59.1093C11.8126 59.0156 11.8463 58.8281 11.7526 58.6893C11.3139 58.0369 10.8902 57.3657 10.4927 56.6757C10.0915 55.9858 9.7165 55.2883 9.36778 54.5834C9.29279 54.4334 9.1128 54.3697 8.96281 54.4447L8.23912 54.7934C8.08538 54.8684 8.02163 55.0521 8.09663 55.2059C8.46035 55.9408 8.85032 56.6682 9.26653 57.3882C9.68275 58.1081 10.1252 58.8093 10.5827 59.488C10.6802 59.6268 10.8714 59.6643 11.0101 59.5668Z" fill="#0086C9"/>
<path d="M8.17523 51.8798C4.95048 43.653 5.08548 34.7212 8.11149 26.8318C8.17149 26.6743 8.09649 26.5018 7.939 26.4381L7.19281 26.1418C7.03532 26.0781 6.85533 26.1568 6.79159 26.3181C3.63809 34.5337 3.49935 43.8329 6.85534 52.401C6.91908 52.5585 7.09907 52.6373 7.25656 52.5735L8.00275 52.2735C8.16024 52.2135 8.23523 52.0373 8.17523 51.8798Z" fill="#0086C9"/>
<path d="M12.0938 16.9777L13.2074 17.8514C15.8435 14.4991 19.1432 11.5744 23.0541 9.30205C26.9651 7.02973 31.1385 5.60858 35.3569 4.98238L35.1469 3.58375C30.756 4.2362 26.4139 5.71358 22.3417 8.07964C18.2695 10.4457 14.8348 13.4867 12.0938 16.9777Z" fill="#0086C9"/>
<path d="M67.5969 17.7125L68.7031 16.8313C62.8498 9.44436 54.4917 4.84722 45.5824 3.56482L45.3799 4.96721C53.9405 6.20086 61.9723 10.618 67.5969 17.7125Z" fill="#0086C9"/>
<path d="M43.0439 4.71229L43.1489 3.30241C41.304 3.16367 39.4404 3.16367 37.5806 3.3099L37.6931 4.7198C39.4817 4.57731 41.2703 4.5773 43.0439 4.71229Z" fill="#0086C9"/>
<path d="M73.9413 25.8532L72.6289 26.3782C76.0074 34.7812 75.8649 43.9418 72.6926 51.9886L74.0088 52.5099C77.3085 44.1368 77.4585 34.5975 73.9413 25.8532Z" fill="#0086C9"/>
<path d="M69.1006 58.7945L70.2705 59.5932C71.3204 58.052 72.2428 56.4322 73.0378 54.7598L71.7591 54.1523C70.9942 55.7572 70.1093 57.3096 69.1006 58.7945Z" fill="#0086C9"/>
<path d="M35.3346 74.9743L35.537 73.5719C26.9764 72.3382 18.9446 67.9211 13.32 60.8266L12.2139 61.7078C18.0672 69.0947 26.4253 73.6919 35.3346 74.9743Z" fill="#0086C9"/>
<path d="M58.5749 70.4635C62.6471 68.0974 66.0819 65.0564 68.8266 61.5654L67.713 60.6917C65.0769 64.044 61.7772 66.9687 57.8663 69.2411C53.9553 71.5134 49.7819 72.9345 45.5635 73.5607L45.7735 74.9594C50.1606 74.3032 54.5028 72.8258 58.5749 70.4635Z" fill="#0086C9"/>
<path d="M70.3643 49.33C71.1967 46.8477 71.7142 44.2492 71.9092 41.6056L71.9729 40.7507L69.4344 40.5632L69.3706 41.4181C69.1907 43.8479 68.7144 46.2403 67.9495 48.5201L67.6758 49.3338L70.0906 50.1399L70.3643 49.33Z" fill="#0086C9"/>
<path d="M54.0679 67.816L54.5666 67.576C54.7203 67.501 54.7841 67.321 54.7091 67.1673L53.8692 65.4237C53.7942 65.2699 53.6142 65.2062 53.4604 65.2812L52.9617 65.5212C48.9945 67.4373 44.7311 68.4122 40.299 68.4122C35.8631 68.4122 31.6034 67.441 27.6362 65.5212L27.1375 65.2812C26.9838 65.2062 26.8038 65.2699 26.7288 65.4237L25.8889 67.1673C25.8139 67.321 25.8776 67.501 26.0313 67.576L26.5263 67.816C30.8422 69.9008 35.4769 70.9583 40.299 70.9583C45.1174 70.9583 49.7482 69.9008 54.0679 67.816Z" fill="#0086C9"/>
<path d="M52.9581 12.9805L53.7305 13.3555L54.8367 11.0607L54.0642 10.6857C51.6944 9.54203 49.1933 8.69836 46.6248 8.17715L45.7849 8.00841L45.2749 10.502L46.1148 10.6744C48.4809 11.1544 50.7832 11.9306 52.9581 12.9805Z" fill="#0086C9"/>
<path d="M56.7114 63.354L56.0027 63.8377L57.4351 65.9413L58.1438 65.4576C60.3111 63.9802 62.2872 62.2366 64.0233 60.283L64.5933 59.6418L62.6884 57.9544L62.1185 58.5956C60.5248 60.3917 58.7025 61.9928 56.7114 63.354Z" fill="#0086C9"/>
<path d="M34.4684 10.6744L35.3083 10.502L34.7984 8.00841L33.9584 8.17715C31.3899 8.69836 28.8888 9.54203 26.519 10.6857L25.7466 11.0607L26.8527 13.3555L27.6252 12.9805C29.8075 11.9306 32.1098 11.1544 34.4684 10.6744Z" fill="#0086C9"/>
<path d="M18.4721 58.5919L17.9022 57.9507L15.9973 59.638L16.5673 60.2792C18.2996 62.2328 20.2795 63.9764 22.4468 65.4538L23.1555 65.9375L24.5879 63.834L23.8792 63.3502C21.8881 61.9928 20.0657 60.3917 18.4721 58.5919Z" fill="#0086C9"/>
<path d="M11.2202 41.4221L11.1565 40.5672L8.61792 40.7547L8.68166 41.6096C8.87664 44.2531 9.39785 46.8517 10.2265 49.334L10.5003 50.1477L12.9151 49.3415L12.6413 48.5278C11.8764 46.2405 11.3964 43.8519 11.2202 41.4221Z" fill="#0086C9"/>
<path d="M66.712 56.2033C67.5922 56.2033 68.3057 55.4898 68.3057 54.6097C68.3057 53.7296 67.5922 53.0161 66.712 53.0161C65.8319 53.0161 65.1184 53.7296 65.1184 54.6097C65.1184 55.4898 65.8319 56.2033 66.712 56.2033Z" fill="#0086C9"/>
<path d="M38.7017 9.08815C38.7017 9.96934 39.4141 10.6818 40.2953 10.6818C41.1765 10.6818 41.8889 9.96934 41.8889 9.08815C41.8889 8.20697 41.1765 7.49453 40.2953 7.49453C39.4141 7.49453 38.7017 8.20697 38.7017 9.08815Z" fill="#0086C9"/>
<path d="M12.3562 54.4484C12.3562 55.3296 13.0686 56.042 13.9498 56.042C14.831 56.042 15.5435 55.3296 15.5435 54.4484C15.5435 53.5672 14.831 52.8548 13.9498 52.8548C13.0686 52.8548 12.3562 53.5672 12.3562 54.4484Z" fill="#0086C9"/>
<path d="M33.9509 21.2934V20.4385L29.5375 18.5299V16.1938H23.9466V25.3844H17.2872V31.6014H16.2035V33.1013L11.7864 33.09C13.3425 25.8268 17.6096 19.4298 23.8754 15.1514L24.5841 14.6677L23.1517 12.5641L22.443 13.0478C14.4037 18.5337 9.38655 27.2255 8.6741 36.896L8.61035 37.7509L11.1489 37.9421L11.2126 37.0872C11.2801 36.161 11.3926 35.2498 11.5464 34.3462L17.4597 34.3612V32.8613H18.5433V26.6443H22.7317V28.9841H25.1991V17.4538H28.2776V19.3586L32.691 21.2672V22.5534H34.997V23.427H37.5656V13.7753H41.364V22.1896H43.8126V20.2548H47.0748V18.5974H49.7634V28.0617H51.957V26.813H54.3155V27.8779H56.5616V30.1502H57.8477V30.6265H59.5913V29.674L61.8937 28.3954V27.2142H63.0111V34.9349H64.7884V33.3675H68.6094V32.2726C68.9919 33.84 69.2506 35.4523 69.3706 37.0985L69.4343 37.9534L71.9729 37.7622L71.9091 36.9072C71.1967 27.2367 66.1796 18.5449 58.1402 13.0591L57.4315 12.5754L55.9991 14.679L56.7078 15.1627C62.6886 19.2461 66.8508 25.2569 68.5681 32.1113H64.2635V25.9581H60.6375V27.6567L58.4027 28.8978H57.814V26.6255H55.5679V25.5606H51.0158V17.345H45.8187V19.0024H42.6164V12.5116H36.3057V22.1634H36.2494V21.2897H33.9509V21.2934Z" fill="#0086C9"/>
<path d="M34.3332 31.5152L14.966 39.6333L13.6836 38.3097V39.8583C13.6836 54.3659 25.4877 66.17 39.9953 66.17C47.7234 66.17 54.6866 62.8215 59.505 57.4969H59.5163V57.4857C63.7384 52.8173 66.3107 46.634 66.3107 39.8583V37.3235L65.1221 39.5771L45.8898 31.519L44.7087 32.4414V29.6628L46.1073 28.238L65.1146 38.3097L65.7033 37.1998L46.291 26.9143L45.8898 26.6968L45.5561 27.008L44.7087 27.8705V25.9319L41.4914 23.7083H38.7316L35.5144 25.9319V27.818L34.6782 27.0193L34.352 26.6931L14.5198 37.1998L15.1085 38.3097L34.1307 28.2305L35.5144 29.5541V32.4376L34.3332 31.5152ZM35.5144 34.0313V36.6448L33.9882 36.0261L31.4047 36.8435V34.1063L34.142 32.9588L35.5144 34.0313ZM62.4223 51.0249C62.2085 51.4486 61.9873 51.8686 61.7511 52.2811V42.2694L62.4223 42.4831V51.0249ZM63.6747 42.8768L64.8221 43.2405C64.5971 44.9016 64.2109 46.5103 63.6747 48.0551V42.8768ZM61.7473 40.9532V39.5283L62.4185 39.8095V41.1669L61.7473 40.9532ZM60.4949 40.5557L59.5125 40.2445V38.5871L60.4949 38.9996V40.5557ZM58.2563 39.8508L56.8877 39.4196V37.4922L58.2563 38.0659V39.8508ZM55.6315 39.0221L53.7642 38.4334V36.1836L55.6315 36.9673V39.0221ZM55.6315 40.3383V59.4243C55.0316 59.9042 54.4054 60.3579 53.7642 60.7854V39.7496L55.6315 40.3383ZM52.508 38.0359L49.9808 37.2373V34.5975L52.508 35.6549V38.0359ZM52.508 39.3521V61.5616C51.6944 62.0341 50.8507 62.4615 49.9808 62.8402V38.5571L52.508 39.3521ZM48.7284 63.3427C47.4347 63.8264 46.0886 64.2051 44.7049 64.4676V37.9572L46.1973 37.3535L48.7284 38.1522V63.3427ZM17.7108 42.4793L18.382 42.2656V52.5248C18.1457 52.1273 17.9245 51.7186 17.7108 51.3061V42.4793ZM16.4546 48.4451C15.8509 46.799 15.416 45.0704 15.1722 43.2818L16.4546 42.8768V48.4451ZM17.7108 41.1632V39.8433L18.382 39.5621V40.9495L17.7108 41.1632ZM19.6381 41.8719L20.6205 41.5607V55.7271C20.2793 55.3108 19.9531 54.8871 19.6381 54.4521V41.8719ZM19.6381 40.5557V39.0371L20.6205 38.6246V40.2445L19.6381 40.5557ZM21.8729 38.0997L23.2416 37.526V39.4158L21.8729 39.847V38.0997ZM24.4977 37.001L26.3651 36.2173V38.4334L24.4977 39.0221V37.001ZM27.6213 35.6886L30.1486 34.6312V37.2373L27.6213 38.0359V35.6886ZM26.3689 39.7458V60.8754C25.7239 60.4554 25.1014 60.0092 24.5015 59.533V40.3345L26.3689 39.7458ZM27.6213 39.3521L30.1486 38.5534V62.8965C29.2786 62.5253 28.4387 62.1053 27.6213 61.6403V39.3521ZM31.4047 38.1559L33.9358 37.3572L35.5144 37.9947V64.5089C34.1007 64.2539 32.7246 63.8752 31.4047 63.3915V38.1559ZM36.7705 37.6235L40.1565 37.0198L43.4488 37.6085V58.6031L40.1528 57.6319L36.7705 58.6293V37.6235ZM40.1565 35.7411L36.7705 36.3448V30.4878L38.8404 29.4041H41.4577L43.4525 30.4428V36.3298L40.1565 35.7411ZM16.4546 40.372V41.5607L15.0297 42.0106C14.9997 41.6732 14.9772 41.3357 14.9622 40.9982L16.4546 40.372ZM21.8729 57.1482V41.1669L23.2416 40.7357V58.4793C22.7691 58.0481 22.3117 57.6056 21.8729 57.1482ZM36.7705 64.7076V59.9342L40.1528 58.9368L43.4488 59.908V64.6738C42.3201 64.8313 41.1652 64.9138 39.9953 64.9138C38.9004 64.9138 37.8242 64.8426 36.7705 64.7076ZM56.8877 58.3481V40.7357L58.2563 41.1669V56.9982C57.8176 57.4632 57.3602 57.9169 56.8877 58.3481ZM59.5125 41.5607L60.4949 41.8719V54.2197H60.5174C60.1987 54.6734 59.865 55.1196 59.5163 55.5508V41.5607H59.5125ZM64.9608 41.9656L63.6747 41.5607V40.3345L65.0283 40.9007C65.0171 41.2569 64.9908 41.6132 64.9608 41.9656ZM46.0773 32.9588L48.7284 34.0688V36.8398L46.1448 36.0223L44.7049 36.6036V36.5511V34.0275L46.0773 32.9588ZM39.1216 24.9645H41.0977L43.4488 26.5918V29.0329L41.7614 28.1517H38.5291L36.7705 29.0741V26.5918L39.1216 24.9645Z" fill="#0086C9"/>
</svg>
