<svg width="100" height="98" viewBox="0 0 100 98" fill="none" xmlns="http://www.w3.org/2000/svg">
<path d="M57.4824 90.9385L52.5276 95.8933C50.4296 97.9913 47.0372 97.9913 44.9615 95.8933L1.57349 52.5276C-0.524495 50.4296 -0.524495 47.0372 1.57349 44.9615L44.9615 1.57349C47.0595 -0.524495 50.452 -0.524495 52.5276 1.57349L57.4824 6.52829C59.6027 8.64859 59.5581 12.108 57.3932 14.1837L30.4988 39.8058H94.6435C97.6119 39.8058 100 42.194 100 45.1624V52.3044C100 55.2729 97.6119 57.661 94.6435 57.661H30.4988L57.3932 83.2831C59.5804 85.3588 59.625 88.8182 57.4824 90.9385Z" fill="white"/>
</svg>
